<?xml version="1.0" encoding="UTF-8"?>
<svg id="Laag_1" xmlns="http://www.w3.org/2000/svg" version="1.1" viewBox="0 0 132 132">
  <!-- Generator: Adobe Illustrator 29.3.1, SVG Export Plug-In . SVG Version: 2.1.0 Build 151)  -->
  <defs>
    <style>
      .st0 {
        fill: #fd2c5e;
      }

      .st1 {
        fill: #fff;
      }
    </style>
  </defs>
  <path class="st1" d="M75.2,87.2"/>
  <g>
    <path class="st1" d="M92.9,52.7c-1.8,1.8-3.8,3.2-6.2,4.1s-4.6,1.4-7,1.4-4.6-.4-6.9-1.3-4.3-2.3-6.1-4.1l-7.5-7.5c-1-1-2.1-1.7-3.4-2.2s-2.6-.7-3.9-.7-2.6.2-3.9.7-2.4,1.2-3.4,2.2l-7.5,7.5-5.7-5.7,7.5-7.5c1.8-1.8,3.8-3.1,6.1-4,2.3-.9,4.5-1.3,6.9-1.3s4.6.4,6.8,1.3,4.2,2.2,6,4l7.5,7.5c1.1,1.1,2.2,1.8,3.5,2.3s2.6.7,3.9.7,2.6-.2,3.9-.7,2.5-1.3,3.5-2.3l7.5-7.5,5.7,5.7-7.5,7.5ZM45.2,55.4,44.8,65.1,92.8,92.5c-1.8,1.8-3.8,3.1-6.1,4s-4.5,1.3-6.9,1.3-4.6-.4-6.9-1.3-4.3-2.2-6.1-4l-7.6-7.5c-1-1-2.1-1.7-3.4-2.2s-2.6-.7-3.9-.7-2.6.2-3.9.7-2.4,1.2-3.4,2.2l-7.5,7.5-5.6-5.6,7.5-7.6c1.8-1.8,3.8-3.1,6.1-4,2.3-.9,4.5-1.3,6.9-1.3s4.6.4,6.8,1.3,4.2,2.2,6,4l7.5,7.5c1.1,1.1,2.2,1.8,3.5,2.3s2.6.7,3.9.7,2.6-.2,3.9-.7,2.4-1.3,3.5-2.3l7.5-7.5,5.6,5.7-7.5,7.5Z"/>
    <path class="st0" d="M92.9,73.3c-1.8,1.8-3.8,3.2-6.2,4.1-2.3.9-4.6,1.4-7,1.4s-4.6-.4-6.9-1.3-4.3-2.3-6.1-4.1l-7.5-7.5c-1-1-2.1-1.7-3.4-2.2s-2.6-.7-3.9-.7-2.6.2-3.9.7-2.4,1.2-3.4,2.2l-7.5,7.5-5.7-5.7,7.5-7.5c1.8-1.8,3.8-3.1,6.1-4,2.3-.9,4.5-1.3,6.9-1.3s4.6.4,6.8,1.3,4.2,2.2,6,4l7.5,7.5c1.1,1.1,2.2,1.8,3.5,2.3s2.6.7,3.9.7,2.6-.2,3.9-.7,2.5-1.3,3.5-2.3l7.5-7.5,5.7,5.7-7.5,7.5ZM45.2,76,44.8,85.7"/>
  </g>
</svg>