<?xml version="1.0" encoding="utf-8"?>
<!-- Generator: Adobe Illustrator 29.3.1, SVG Export Plug-In . SVG Version: 9.03 Build 55982)  -->
<svg version="1.1" baseProfile="tiny" id="Laag_1" xmlns="http://www.w3.org/2000/svg" xmlns:xlink="http://www.w3.org/1999/xlink"
	 x="0px" y="0px" viewBox="0 0 132 132" overflow="visible" xml:space="preserve">
<path fill="#00182E" d="M119.2,132H12.8C5.8,132,0,126.2,0,119.2V12.8C0,5.8,5.8,0,12.8,0h106.3c7.1,0,12.8,5.7,12.8,12.8v106.3
	C132,126.2,126.2,132,119.2,132z"/>
<path fill="#FFFFFF" d="M75.2,87.2"/>
<g>
	<path fill="#FFFFFF" d="M92.9,52.7c-1.8,1.8-3.8,3.2-6.2,4.1c-2.3,0.9-4.6,1.4-7,1.4s-4.6-0.4-6.9-1.3c-2.3-0.9-4.3-2.3-6.1-4.1
		l-7.5-7.5c-1-1-2.1-1.7-3.4-2.2c-1.3-0.5-2.6-0.7-3.9-0.7s-2.6,0.2-3.9,0.7s-2.4,1.2-3.4,2.2l-7.5,7.5L31.7,47l7.5-7.5
		c1.8-1.8,3.8-3.1,6.1-4c2.3-0.9,4.5-1.3,6.9-1.3s4.6,0.4,6.8,1.3c2.2,0.9,4.2,2.2,6,4l7.5,7.5c1.1,1.1,2.2,1.8,3.5,2.3
		s2.6,0.7,3.9,0.7s2.6-0.2,3.9-0.7c1.3-0.5,2.5-1.3,3.5-2.3l7.5-7.5l5.7,5.7L92.9,52.7z M45.2,55.4 M44.8,65.1 M92.8,92.5
		c-1.8,1.8-3.8,3.1-6.1,4c-2.3,0.9-4.5,1.3-6.9,1.3c-2.3,0-4.6-0.4-6.9-1.3c-2.3-0.9-4.3-2.2-6.1-4L59.2,85c-1-1-2.1-1.7-3.4-2.2
		C54.6,82.3,53.3,82,52,82s-2.6,0.2-3.9,0.7c-1.3,0.5-2.4,1.2-3.4,2.2l-7.5,7.5l-5.6-5.6l7.5-7.6c1.8-1.8,3.8-3.1,6.1-4
		c2.3-0.9,4.5-1.3,6.9-1.3s4.6,0.4,6.8,1.3c2.2,0.9,4.2,2.2,6,4l7.5,7.5c1.1,1.1,2.2,1.8,3.5,2.3c1.3,0.5,2.6,0.7,3.9,0.7
		c1.3,0,2.6-0.2,3.9-0.7c1.3-0.5,2.4-1.3,3.5-2.3l7.5-7.5l5.6,5.7L92.8,92.5z"/>
	<path fill="#FD2C5E" d="M92.9,73.3c-1.8,1.8-3.8,3.2-6.2,4.1c-2.3,0.9-4.6,1.4-7,1.4s-4.6-0.4-6.9-1.3c-2.3-0.9-4.3-2.3-6.1-4.1
		l-7.5-7.5c-1-1-2.1-1.7-3.4-2.2c-1.3-0.5-2.6-0.7-3.9-0.7s-2.6,0.2-3.9,0.7c-1.3,0.5-2.4,1.2-3.4,2.2l-7.5,7.5l-5.7-5.7l7.5-7.5
		c1.8-1.8,3.8-3.1,6.1-4c2.3-0.9,4.5-1.3,6.9-1.3s4.6,0.4,6.8,1.3c2.2,0.9,4.2,2.2,6,4l7.5,7.5c1.1,1.1,2.2,1.8,3.5,2.3
		c1.3,0.5,2.6,0.7,3.9,0.7s2.6-0.2,3.9-0.7c1.3-0.5,2.5-1.3,3.5-2.3l7.5-7.5l5.7,5.7L92.9,73.3z M45.2,76 M44.8,85.7"/>
</g>
</svg>
